# xmcd
#
# Track frame offsets:
#	150
#	3942
#	29382
#	51292
#	68125
#	91445
#	133585
#	143647
#	153437
#	183667
#
# Disc length: 2536 seconds
#
# Revision: 1
# Processed by: cddbd v1.5.2PL0 Copyright (c) Steve Scherf et al.
# Submitted via: audiograbber 1.83.01
#
DISCID=8309e60a
DTITLE=Yokeshire - Masque of Shadows
DYEAR=1999
DGENRE=Progressive Rock
TTITLE0=The Three Welcomes
TTITLE1=Black Tower
TTITLE2=Shape of a Dancer
TTITLE3=Magic Circle
TTITLE4=Maiden Voyage
TTITLE5=The Brook, the Mirror and the Maiden
TTITLE6=Return Voyage
TTITLE7=Ghost Notes
TTITLE8=Masque of Shadows
TTITLE9=Magic Dust
EXTD=
EXTT0=
EXTT1=
EXTT2=
EXTT3=
EXTT4=
EXTT5=
EXTT6=
EXTT7=
EXTT8=
EXTT9=
PLAYORDER=
